<?xml version="1.0" encoding="us-ascii" standalone="no"?><svg xmlns="http://www.w3.org/2000/svg" xmlns:xlink="http://www.w3.org/1999/xlink" contentStyleType="text/css" height="580px" preserveAspectRatio="none" style="width:595px;height:580px;background:#FFFFFF;" version="1.1" viewBox="0 0 595 580" width="595px" zoomAndPan="magnify"><defs/><g><!--cluster Platform Overview--><g id="cluster_Platform Overview"><rect fill="#FFFFFF" height="562" rx="2.5" ry="2.5" style="stroke:#000000;stroke-width:1.0;" width="380" x="209" y="12"/><text fill="#000000" font-family="Verdana" font-size="14" font-weight="bold" lengthAdjust="spacing" textLength="144" x="327" y="28.0752">Platform Overview</text></g><g id="elem_UC1"><ellipse cx="398.9527" cy="76.9905" fill="#FFFFFF" rx="132.9527" ry="28.9905" style="stroke:#000000;stroke-width:1.0;"/><text fill="#000000" font-family="Verdana" font-size="14" lengthAdjust="spacing" textLength="184" x="303.9527" y="72.7708">Register, Login and Profile</text><text fill="#000000" font-family="Verdana" font-size="14" lengthAdjust="spacing" textLength="62" x="364.9527" y="89.7855">(USERM)</text></g><g id="elem_UC2"><ellipse cx="398.8662" cy="180.1449" fill="#FFFFFF" rx="165.8662" ry="39.1449" style="stroke:#000000;stroke-width:1.0;"/><text fill="#000000" font-family="Verdana" font-size="14" lengthAdjust="spacing" textLength="218" x="286.8662" y="167.4179">Capture / Upload Lesion Image</text><text fill="#000000" font-family="Verdana" font-size="14" lengthAdjust="spacing" textLength="188" x="301.8662" y="184.4325">and View Risk Assessment</text><text fill="#000000" font-family="Verdana" font-size="14" lengthAdjust="spacing" textLength="50" x="370.8662" y="201.4472">(ANLS)</text></g><g id="elem_UC3"><ellipse cx="399.1995" cy="293.0935" fill="#FFFFFF" rx="152.1995" ry="39.0935" style="stroke:#000000;stroke-width:1.0;"/><text fill="#000000" font-family="Verdana" font-size="14" lengthAdjust="spacing" textLength="146" x="326.1995" y="279.6467">Learning, Points, XP,</text><text fill="#000000" font-family="Verdana" font-size="14" lengthAdjust="spacing" textLength="199" x="299.6995" y="296.6614">Badges and Avatar Rewards</text><text fill="#000000" font-family="Verdana" font-size="14" lengthAdjust="spacing" textLength="52" x="373.1995" y="313.676">(GAMF)</text></g><g id="elem_UC4"><ellipse cx="398.8858" cy="406.0935" fill="#FFFFFF" rx="140.8858" ry="39.0935" style="stroke:#000000;stroke-width:1.0;"/><text fill="#000000" font-family="Verdana" font-size="14" lengthAdjust="spacing" textLength="183" x="307.3858" y="392.6467">Scan History, Comparison</text><text fill="#000000" font-family="Verdana" font-size="14" lengthAdjust="spacing" textLength="111" x="343.3858" y="409.6614">and PDF Export</text><text fill="#000000" font-family="Verdana" font-size="14" lengthAdjust="spacing" textLength="46" x="375.8858" y="426.676">(HIST)</text></g><g id="elem_UC5"><ellipse cx="399.1198" cy="519.0935" fill="#FFFFFF" rx="174.1198" ry="39.0935" style="stroke:#000000;stroke-width:1.0;"/><text fill="#000000" font-family="Verdana" font-size="14" lengthAdjust="spacing" textLength="181" x="308.6198" y="505.6467">Admin Dashboard, Users,</text><text fill="#000000" font-family="Verdana" font-size="14" lengthAdjust="spacing" textLength="230" x="284.1198" y="522.6614">Quizzes, Badges and Scan Rules</text><text fill="#000000" font-family="Verdana" font-size="14" lengthAdjust="spacing" textLength="59" x="369.6198" y="539.676">(ADMIN)</text></g><!--entity U--><g id="elem_U"><ellipse cx="88" cy="207" fill="#FFFFFF" rx="8" ry="8" style="stroke:#000000;stroke-width:1.0;"/><path d="M88,215 L88,242 M75,223 L101,223 M88,242 L75,257 M88,242 L101,257 " fill="none" style="stroke:#000000;stroke-width:1.0;"/><text fill="#000000" font-family="Verdana" font-size="14" lengthAdjust="spacing" textLength="32" x="72" y="273.0752">User</text></g><!--entity A--><g id="elem_A"><ellipse cx="88" cy="489" fill="#FFFFFF" rx="8" ry="8" style="stroke:#000000;stroke-width:1.0;"/><path d="M88,497 L88,524 M75,505 L101,505 M88,524 L75,539 M88,524 L101,539 " fill="none" style="stroke:#000000;stroke-width:1.0;"/><text fill="#000000" font-family="Verdana" font-size="14" lengthAdjust="spacing" textLength="154" x="11" y="555.0752">System Administrator</text></g><!--link U to UC1--><g id="link_U_UC1"><path d="M104.16,215.33 C123.56,189.3 159.64,146.24 201,123 C226.49,108.68 250.4035,100.2011 278.9335,93.4011 " fill="none" id="U-to-UC1" style="stroke:#000000;stroke-width:1.0;"/><polygon fill="#000000" points="284.77,92.01,275.0878,90.2057,279.9062,93.1693,276.9426,97.9877,284.77,92.01" style="stroke:#000000;stroke-width:1.0;"/></g><!--link U to UC2--><g id="link_U_UC2"><path d="M104.32,234.17 C134.46,228.61 198.1896,216.8588 262.0796,205.0688 " fill="none" id="U-to-UC2" style="stroke:#000000;stroke-width:1.0;"/><polygon fill="#000000" points="267.98,203.98,258.4035,201.6797,263.063,204.8874,259.8553,209.5468,267.98,203.98" style="stroke:#000000;stroke-width:1.0;"/></g><!--link U to UC3--><g id="link_U_UC3"><path d="M104.32,239.78 C135.44,245.42 202.7262,257.6097 268.2562,269.4897 " fill="none" id="U-to-UC3" style="stroke:#000000;stroke-width:1.0;"/><polygon fill="#000000" points="274.16,270.56,266.0179,265.0187,269.2402,269.6681,264.5908,272.8904,274.16,270.56" style="stroke:#000000;stroke-width:1.0;"/></g><!--link U to UC4--><g id="link_U_UC4"><path d="M104.11,257.49 C123.72,282.66 160.28,324.95 201,349 C226.21,363.89 249.8066,373.3976 278.0266,381.7476 " fill="none" id="U-to-UC4" style="stroke:#000000;stroke-width:1.0;"/><polygon fill="#000000" points="283.78,383.45,276.2848,377.0608,278.9855,382.0314,274.0149,384.7321,283.78,383.45" style="stroke:#000000;stroke-width:1.0;"/></g><!--link A to UC5--><g id="link_A_UC5"><path d="M165.38,519 C183.7,519 198.01,519 218.77,519 " fill="none" id="A-to-UC5" style="stroke:#000000;stroke-width:1.0;"/><polygon fill="#000000" points="224.77,519,215.77,515,219.77,519,215.77,523,224.77,519" style="stroke:#000000;stroke-width:1.0;"/></g><!--SRC=[JP5FJ-Cm4CNl_XIFdXOf5UBV5IdRmbAfXMn2LXnw6P9fQZMn8uzRjgpsk-C4KkNsDEFvlJVZCx_bXj7Mf8sgUUFXBPokjXwbTbnuROsIdJOjEMhGKh6ZYZD_h1bTcqnLir9KUEimoONT12J8Xqfs5CyDuhBHHejt5AhzYrYfqpmcIKr-Ors3vmExW-Rt2VufO2zSa8H-obMOPXTXQIjjGAP4ukn6rxmsF_BiFbsTVndFBiTpCshztZ4kaBUrfH9Bbh0H5atOOcqwp9_WXbJB3h48YpHiV636JyjiG5wDaKicPxIf8YHM6oyHNfDeRNvIMR7qmU83UN98-PrSAO7rAruz3AphCIihoE0nR6RTCSBCDk7AMgpvIfRC7t3_jxMko_Euo5u6nisOqPyMSvBjcmr-4RfFa93ezrv_V738DuhM6wRxchjOyNorU1gOj-g_KZccqxl-XeEwEgdhaxfHAlwMjvy0]--></g></svg>