<?xml version="1.0" encoding="us-ascii" standalone="no"?><svg xmlns="http://www.w3.org/2000/svg" xmlns:xlink="http://www.w3.org/1999/xlink" contentStyleType="text/css" height="797px" preserveAspectRatio="none" style="width:510px;height:797px;background:#FFFFFF;" version="1.1" viewBox="0 0 510 797" width="510px" zoomAndPan="magnify"><defs/><g><!--cluster GAMF Module--><g id="cluster_GAMF Module"><rect fill="#FFFFFF" height="779" rx="2.5" ry="2.5" style="stroke:#000000;stroke-width:1.0;" width="351" x="153" y="12"/><text fill="#000000" font-family="Verdana" font-size="14" font-weight="bold" lengthAdjust="spacing" textLength="105" x="276" y="28.0752">GAMF Module</text></g><g id="elem_UC1"><ellipse cx="328.267" cy="570.0623" fill="#FFFFFF" rx="89.267" ry="27.0623" style="stroke:#000000;stroke-width:1.0;"/><text fill="#000000" font-family="Verdana" font-size="14" lengthAdjust="spacing" textLength="98" x="279.267" y="565.1229">View Adaptive</text><text fill="#000000" font-family="Verdana" font-size="14" lengthAdjust="spacing" textLength="110" x="273.267" y="582.1375">Prevention Goal</text></g><g id="elem_UC2"><ellipse cx="328.5556" cy="659.1073" fill="#FFFFFF" rx="108.5556" ry="27.1073" style="stroke:#000000;stroke-width:1.0;"/><text fill="#000000" font-family="Verdana" font-size="14" lengthAdjust="spacing" textLength="137" x="257.0556" y="654.8875">Complete Daily Sun</text><text fill="#000000" font-family="Verdana" font-size="14" lengthAdjust="spacing" textLength="127" x="262.0556" y="671.9022">Protection Mission</text></g><g id="elem_UC3"><ellipse cx="328.4997" cy="75.1134" fill="#FFFFFF" rx="109.9997" ry="27.1134" style="stroke:#000000;stroke-width:1.0;"/><text fill="#000000" font-family="Verdana" font-size="14" lengthAdjust="spacing" textLength="139" x="255.9997" y="70.8937">Start Daily Learning</text><text fill="#000000" font-family="Verdana" font-size="14" lengthAdjust="spacing" textLength="67" x="291.9997" y="87.9083">Challenge</text></g><g id="elem_UC4"><ellipse cx="328.6196" cy="187.8239" fill="#FFFFFF" rx="159.6196" ry="34.3239" style="stroke:#000000;stroke-width:1.0;"/><text fill="#000000" font-family="Verdana" font-size="14" lengthAdjust="spacing" textLength="212" x="222.6196" y="182.8845">Answer Mixed Question Types</text><text fill="#000000" font-family="Verdana" font-size="14" lengthAdjust="spacing" textLength="251" x="203.1196" y="199.8991">(Image, True/False, Multiple Choice)</text></g><g id="elem_UC5"><ellipse cx="328.5579" cy="302.9116" fill="#FFFFFF" rx="130.0579" ry="28.4116" style="stroke:#000000;stroke-width:1.0;"/><text fill="#000000" font-family="Verdana" font-size="14" lengthAdjust="spacing" textLength="176" x="237.5579" y="298.6918">View Challenge Summary</text><text fill="#000000" font-family="Verdana" font-size="14" lengthAdjust="spacing" textLength="155" x="248.0579" y="315.7065">and Review Questions</text></g><g id="elem_UC6"><ellipse cx="328.3944" cy="394.0623" fill="#FFFFFF" rx="111.8944" ry="27.0623" style="stroke:#000000;stroke-width:1.0;"/><text fill="#000000" font-family="Verdana" font-size="14" lengthAdjust="spacing" textLength="134" x="261.3944" y="389.1229">Earn Points and XP</text><text fill="#000000" font-family="Verdana" font-size="14" lengthAdjust="spacing" textLength="142" x="257.3944" y="406.1375">for Correct Answers</text></g><g id="elem_UC7"><ellipse cx="328.5256" cy="489.8051" fill="#FFFFFF" rx="74.5256" ry="17.3051" style="stroke:#000000;stroke-width:1.0;"/><text fill="#000000" font-family="Verdana" font-size="14" lengthAdjust="spacing" textLength="103" x="276.7046" y="493.4597">Unlock Badges</text></g><g id="elem_UC8"><ellipse cx="328.5097" cy="748.0623" fill="#FFFFFF" rx="93.5097" ry="27.0623" style="stroke:#000000;stroke-width:1.0;"/><text fill="#000000" font-family="Verdana" font-size="14" lengthAdjust="spacing" textLength="116" x="270.5097" y="743.1229">Spend Points on</text><text fill="#000000" font-family="Verdana" font-size="14" lengthAdjust="spacing" textLength="91" x="283.0097" y="760.1375">Avatar Items</text></g><!--entity U--><g id="elem_U"><ellipse cx="27" cy="426" fill="#FFFFFF" rx="8" ry="8" style="stroke:#000000;stroke-width:1.0;"/><path d="M27,434 L27,461 M14,442 L40,442 M27,461 L14,476 M27,461 L40,476 " fill="none" style="stroke:#000000;stroke-width:1.0;"/><text fill="#000000" font-family="Verdana" font-size="14" lengthAdjust="spacing" textLength="32" x="11" y="492.0752">User</text></g><!--link U to UC1--><g id="link_U_UC1"><path d="M43.14,466.9 C64.75,481.98 106.13,509.15 145,525 C178.69,538.74 211.788,547.7704 245.048,555.0304 " fill="none" id="U-to-UC1" style="stroke:#000000;stroke-width:1.0;"/><polygon fill="#000000" points="250.91,556.31,242.9701,550.4827,246.025,555.2437,241.264,558.2987,250.91,556.31" style="stroke:#000000;stroke-width:1.0;"/></g><!--link U to UC2--><g id="link_U_UC2"><path d="M43.02,489.12 C61.52,525.88 96.55,583.97 145,614 C170.8,629.99 196.0798,638.9677 225.2798,645.6177 " fill="none" id="U-to-UC2" style="stroke:#000000;stroke-width:1.0;"/><polygon fill="#000000" points="231.13,646.95,223.2429,641.0514,226.2548,645.8397,221.4665,648.8517,231.13,646.95" style="stroke:#000000;stroke-width:1.0;"/></g><!--link U to UC3--><g id="link_U_UC3"><path d="M29.38,416.89 C34.15,347.44 55,203.56 145,136 C173.05,114.94 203.0305,102.5472 235.4305,93.2972 " fill="none" id="U-to-UC3" style="stroke:#000000;stroke-width:1.0;"/><polygon fill="#000000" points="241.2,91.65,231.4477,90.2744,236.3921,93.0226,233.6439,97.967,241.2,91.65" style="stroke:#000000;stroke-width:1.0;"/></g><!--link U to UC4--><g id="link_U_UC4"><path d="M29.58,416.73 C32.97,380.34 43.14,326.6 73,291 C107,250.46 153.6298,227.4891 202.0398,212.4591 " fill="none" id="U-to-UC4" style="stroke:#000000;stroke-width:1.0;"/><polygon fill="#000000" points="207.77,210.68,197.9887,209.5285,202.9949,212.1626,200.3608,217.1687,207.77,210.68" style="stroke:#000000;stroke-width:1.0;"/></g><!--link U to UC5--><g id="link_U_UC5"><path d="M31.32,416.96 C35.94,388.54 46.91,351.56 73,331 C111.58,300.6 158.2709,291.325 205.7009,290.495 " fill="none" id="U-to-UC5" style="stroke:#000000;stroke-width:1.0;"/><polygon fill="#000000" points="211.7,290.39,202.6314,286.5481,206.7008,290.4775,202.7714,294.5469,211.7,290.39" style="stroke:#000000;stroke-width:1.0;"/></g><!--link U to UC6--><g id="link_U_UC6"><path d="M43.18,449.46 C51.79,445.95 62.85,441.79 73,439 C124.05,424.97 176.1811,415.2409 223.9511,407.8209 " fill="none" id="U-to-UC6" style="stroke:#000000;stroke-width:1.0;"/><polygon fill="#000000" points="229.88,406.9,220.3727,404.3288,224.9392,407.6674,221.6006,412.234,229.88,406.9" style="stroke:#000000;stroke-width:1.0;"/></g><!--link U to UC7--><g id="link_U_UC7"><path d="M43.26,457.73 C82.78,462.22 184.3183,473.7429 255.1983,481.7929 " fill="none" id="U-to-UC7" style="stroke:#000000;stroke-width:1.0;"/><polygon fill="#000000" points="261.16,482.47,252.6689,477.4799,256.1919,481.9058,251.7661,485.4288,261.16,482.47" style="stroke:#000000;stroke-width:1.0;"/></g><!--link U to UC8--><g id="link_U_UC8"><path d="M33.48,495.47 C43.82,552.89 72.13,657.54 145,703 C173.66,720.88 203.0907,730.4524 235.0007,736.9524 " fill="none" id="U-to-UC8" style="stroke:#000000;stroke-width:1.0;"/><polygon fill="#000000" points="240.88,738.15,232.8595,732.4341,235.9806,737.152,231.2627,740.2731,240.88,738.15" style="stroke:#000000;stroke-width:1.0;"/></g><!--link UC3 to UC4--><g id="link_UC3_UC4"><path d="M328.5,102.14 C328.5,117.55 328.5,131 328.5,147.48 " fill="none" id="UC3-to-UC4" style="stroke:#000000;stroke-width:1.0;stroke-dasharray:7.0,7.0;"/><polygon fill="#000000" points="328.5,153.48,332.5,144.48,328.5,148.48,324.5,144.48,328.5,153.48" style="stroke:#000000;stroke-width:1.0;"/><text fill="#000000" font-family="Verdana" font-size="13" lengthAdjust="spacing" textLength="62" x="286" y="133.3198">&#171;include&#187;</text></g><!--link UC4 to UC5--><g id="link_UC4_UC5"><path d="M328.5,222.92 C328.5,239.35 328.5,252.71 328.5,268.28 " fill="none" id="UC4-to-UC5" style="stroke:#000000;stroke-width:1.0;stroke-dasharray:7.0,7.0;"/><polygon fill="#000000" points="328.5,274.28,332.5,265.28,328.5,269.28,324.5,265.28,328.5,274.28" style="stroke:#000000;stroke-width:1.0;"/><text fill="#000000" font-family="Verdana" font-size="13" lengthAdjust="spacing" textLength="62" x="286" y="254.0698">&#171;include&#187;</text></g><!--link UC4 to UC6--><g id="link_UC4_UC6"><path d="M218.35,213.21 C191.9,223.38 165.43,237.49 145,257 C75.51,323.37 87.17,328.29 110,355.5 C136.99,387.66 174.6248,398.9886 215.8148,401.8886 " fill="none" id="UC4-to-UC6" style="stroke:#000000;stroke-width:1.0;stroke-dasharray:7.0,7.0;"/><polygon fill="#000000" points="221.8,402.31,213.1031,397.6878,216.8123,401.9588,212.5413,405.668,221.8,402.31" style="stroke:#000000;stroke-width:1.0;"/><text fill="#000000" font-family="Verdana" font-size="13" lengthAdjust="spacing" textLength="62" x="74" y="352.5698">&#171;include&#187;</text></g><!--link UC6 to UC7--><g id="link_UC6_UC7"><path d="M328.5,421.3 C328.5,437.71 328.5,452.1 328.5,466.39 " fill="none" id="UC6-to-UC7" style="stroke:#000000;stroke-width:1.0;stroke-dasharray:7.0,7.0;"/><polygon fill="#000000" points="328.5,472.39,332.5,463.39,328.5,467.39,324.5,463.39,328.5,472.39" style="stroke:#000000;stroke-width:1.0;"/><text fill="#000000" font-family="Verdana" font-size="13" lengthAdjust="spacing" textLength="61" x="286.5" y="452.3198">&#171;extend&#187;</text></g><!--SRC=[TP5RIyD048NVzrUCVLAmYlQAb4AD5meMgct5XxmCoPWktSo6tKsrYF_TJPg4YFYKmvxzpioUdBWjfGIPGib2qRi3fy78PEiWbeOY9pKBkvESeS4KCenscD3A7HH1OICdYeJ0o6a3dOqbqm6qi16YSQ7pE5iym4B7kQ8EV0c0t5A4rZklaZvW5cFcv9v2NXhQ4nSpuL6ZEaO5LsqYq6cco17SeLG7MELSODeTLuM5jDP_A_AwJQuS6bTXJuI69ISX1rjKYZYX2kcraHdR3p8-z9DYUCx9bZFMXunioAVpr5Tn3ckJq-K3Aklr8bTE-lqWs6ePqLaLsl_pvcQiVq6QeZc4Z1p32-qBjnvbAtxGvk_zwh3Kafs5WdbRXlpksm-qAJg7uz8rEcoZ6rOwsi4jnWdL5qQ_Eih89rRXsbSxswEl3UQEqXeOYsyXDj3jJij_KwlhHlKQrM_Ke573HeqQDVQ1GGykIWPkO3AH7AayfkbK52UbCVZF6FunXaTZL1hqwVoZ_FaF]--></g></svg>